# xmcd
#
# Track frame offsets: 
#        150
#        12717
#        23705
#        34792
#        46077
#        57975
#        68822
#        81102
#        93240
#        104155
#        114785
#        125742
#        137417
#        147660
#        160022
#        171042
#        182005
#        192547
#        203250
#        215422
#        226905
#        236435
#        249995
#        260890
#        271060
#        280285
#        289565
#        301425
#        310320
#        321580
#        332790
#        342860
#
# Disc length: 4718 seconds
#
# Revision: 0
# Processed by: cddbd v1.5.2PL0 Copyright (c) Steve Scherf et al.
# Submitted via: ExactAudioCopy v1.0b3
#
DISCID=d5126c20
DTITLE=Bob Wills and His Texas Playboys - Faded Love 1947-1973 [CD7]
DYEAR=2005
DGENRE=Country
TTITLE0=The Convict And The Rose
TTITLE1=My Confession
TTITLE2=Silver Bell
TTITLE3=Playboy Medley
TTITLE4=Right Or Wrong
TTITLE5=It Makes No Difference Now
TTITLE6=Trouble In Mind
TTITLE7=Wabash Blues
TTITLE8=I Wonder If You Feel The Way I Do
TTITLE9=Li'l Liza Jane
TTITLE10=Hang Your Head In Shame
TTITLE11=Nancy Jane
TTITLE12=After All
TTITLE13=Cryin' Won't Make Me Stay
TTITLE14=Dry Your Darlin's Eyes
TTITLE15=It May Be Too Late
TTITLE16=Oklahoma Gals
TTITLE17=I'm Cryin' My Heart Out
TTITLE18=Tomorrow I'll Cry
TTITLE19=Siesta
TTITLE20=Snow Deer
TTITLE21=Mississippi River Blues
TTITLE22=Deep Water
TTITLE23=Blues For Dixie
TTITLE24=Bubbles In My Beer
TTITLE25=Tie Me To Your Apron Strings Again
TTITLE26=Good Ole Oklahoma
TTITLE27=Roly Poly
TTITLE28=Walkin' In The Shadow Of The Blues
TTITLE29=The Jobob Rag
TTITLE30=Cindy
TTITLE31=She's Killin' Me
EXTD=
EXTT0=
EXTT1=
EXTT2=
EXTT3=
EXTT4=
EXTT5=
EXTT6=
EXTT7=
EXTT8=
EXTT9=
EXTT10=
EXTT11=
EXTT12=
EXTT13=
EXTT14=
EXTT15=
EXTT16=
EXTT17=
EXTT18=
EXTT19=
EXTT20=
EXTT21=
EXTT22=
EXTT23=
EXTT24=
EXTT25=
EXTT26=
EXTT27=
EXTT28=
EXTT29=
EXTT30=
EXTT31=
PLAYORDER=
